<?xml version="1.0" standalone="no"?>
<!DOCTYPE svg PUBLIC "-//W3C//DTD SVG 20010904//EN"
 "http://www.w3.org/TR/2001/REC-SVG-20010904/DTD/svg10.dtd">
<svg version="1.0" xmlns="http://www.w3.org/2000/svg"
 width="260.000000pt" height="260.000000pt" viewBox="0 0 260.000000 260.000000"
 preserveAspectRatio="xMidYMid meet">
<metadata>
Created by potrace 1.11, written by Peter Selinger 2001-2013
</metadata>
<g transform="translate(0.000000,260.000000) scale(0.100000,-0.100000)"
fill="#000000" stroke="none">
<path d="M970 2560 l0 -40 -445 0 -445 0 0 -285 0 -285 40 0 40 0 0 -40 0 -40
-40 0 -40 0 0 -120 0 -120 -40 0 -40 0 0 -325 0 -325 40 0 40 0 0 -125 0 -125
40 0 40 0 0 -40 0 -40 -40 0 -40 0 0 -285 0 -285 445 0 445 0 0 -40 0 -40 325
0 325 0 0 40 0 40 125 0 125 0 0 40 0 40 80 0 80 0 0 40 0 40 40 0 40 0 0 45
0 45 40 0 40 0 0 40 0 40 40 0 40 0 0 40 0 40 45 0 45 0 0 40 0 40 40 0 40 0
0 80 0 80 40 0 40 0 0 125 0 125 40 0 40 0 0 325 0 325 -40 0 -40 0 0 120 0
120 -40 0 -40 0 0 40 0 40 40 0 40 0 0 285 0 285 -450 0 -450 0 0 40 0 40
-325 0 -325 0 0 -40z m170 -1260 l0 -1140 -40 0 -40 0 0 245 0 245 -125 0
-125 0 0 650 0 650 125 0 125 0 0 245 0 245 40 0 40 0 0 -1140z m1130 610 l0
-40 45 0 45 0 0 -120 0 -120 40 0 40 0 0 -45 0 -45 -410 0 -410 0 0 205 0 205
325 0 325 0 0 -40z m-1950 -610 l0 -570 -40 0 -40 0 0 125 0 125 -40 0 -40 0
0 325 0 325 40 0 40 0 0 120 0 120 40 0 40 0 0 -570z m2040 -445 l0 -125 -45
0 -45 0 0 -40 0 -40 45 0 45 0 0 -40 0 -40 -45 0 -45 0 0 40 0 40 -40 0 -40 0
0 -80 0 -80 -40 0 -40 0 0 -40 0 -40 -80 0 -80 0 0 -40 0 -40 40 0 40 0 0 -45
0 -45 -40 0 -40 0 0 45 0 45 -40 0 -40 0 0 -45 0 -45 -125 0 -125 0 0 370 0
370 370 0 370 0 0 -125z"/>
</g>
</svg>
